<mxfile host="app.diagrams.net" agent="Mozilla/5.0 (Windows NT 10.0; Win64; x64) AppleWebKit/537.36 (KHTML, like Gecko) Chrome/131.0.0.0 Safari/537.36" version="25.0.3">
  <diagram id="Jzhrm8ADo_hnbzcnPIq0" name="Страница 1">
    <mxGraphModel dx="1035" dy="551" grid="1" gridSize="10" guides="1" tooltips="1" connect="1" arrows="1" fold="1" page="1" pageScale="1" pageWidth="1169" pageHeight="827" math="0" shadow="0">
      <root>
        <mxCell id="0" />
        <mxCell id="1" parent="0" />
        <mxCell id="Gceo2TrFd9_NEJS-I-wb-1" value="Alt" style="shape=umlFrame;whiteSpace=wrap;html=1;labelBackgroundColor=none;fillColor=#ffffff;fontSize=14;" vertex="1" parent="1">
          <mxGeometry x="10" y="300" width="920" height="290" as="geometry" />
        </mxCell>
        <mxCell id="H8I2yWT_91cUdHV6mu30-6" style="edgeStyle=orthogonalEdgeStyle;rounded=0;orthogonalLoop=1;jettySize=auto;html=1;dashed=1;endArrow=none;endFill=0;" parent="1" source="H8I2yWT_91cUdHV6mu30-11" edge="1">
          <mxGeometry relative="1" as="geometry">
            <mxPoint x="130" y="660" as="targetPoint" />
          </mxGeometry>
        </mxCell>
        <mxCell id="H8I2yWT_91cUdHV6mu30-1" value="User Interface" style="shape=umlBoundary;whiteSpace=wrap;html=1;" parent="1" vertex="1">
          <mxGeometry x="90" y="80" width="80" height="60" as="geometry" />
        </mxCell>
        <mxCell id="H8I2yWT_91cUdHV6mu30-7" style="edgeStyle=orthogonalEdgeStyle;rounded=0;orthogonalLoop=1;jettySize=auto;html=1;exitX=0.5;exitY=1;exitDx=0;exitDy=0;dashed=1;endArrow=none;endFill=0;" parent="1" source="H8I2yWT_91cUdHV6mu30-2" edge="1">
          <mxGeometry relative="1" as="geometry">
            <mxPoint x="305" y="650" as="targetPoint" />
          </mxGeometry>
        </mxCell>
        <mxCell id="H8I2yWT_91cUdHV6mu30-2" value="UserPageController" style="html=1;" parent="1" vertex="1">
          <mxGeometry x="250" y="85" width="110" height="50" as="geometry" />
        </mxCell>
        <mxCell id="H8I2yWT_91cUdHV6mu30-8" style="edgeStyle=orthogonalEdgeStyle;rounded=0;orthogonalLoop=1;jettySize=auto;html=1;exitX=0.5;exitY=1;exitDx=0;exitDy=0;dashed=1;endArrow=none;endFill=0;" parent="1" source="Gceo2TrFd9_NEJS-I-wb-17" edge="1">
          <mxGeometry relative="1" as="geometry">
            <mxPoint x="475" y="650" as="targetPoint" />
          </mxGeometry>
        </mxCell>
        <mxCell id="H8I2yWT_91cUdHV6mu30-3" value="ClientThread" style="html=1;" parent="1" vertex="1">
          <mxGeometry x="420" y="85" width="110" height="50" as="geometry" />
        </mxCell>
        <mxCell id="H8I2yWT_91cUdHV6mu30-9" style="edgeStyle=orthogonalEdgeStyle;rounded=0;orthogonalLoop=1;jettySize=auto;html=1;exitX=0.5;exitY=1;exitDx=0;exitDy=0;dashed=1;endArrow=none;endFill=0;" parent="1" source="Gceo2TrFd9_NEJS-I-wb-13" edge="1">
          <mxGeometry relative="1" as="geometry">
            <mxPoint x="655" y="640" as="targetPoint" />
          </mxGeometry>
        </mxCell>
        <mxCell id="H8I2yWT_91cUdHV6mu30-4" value="CarRequestService" style="html=1;" parent="1" vertex="1">
          <mxGeometry x="590" y="85" width="130" height="50" as="geometry" />
        </mxCell>
        <mxCell id="H8I2yWT_91cUdHV6mu30-10" style="edgeStyle=orthogonalEdgeStyle;rounded=0;orthogonalLoop=1;jettySize=auto;html=1;exitX=0.5;exitY=1;exitDx=0;exitDy=0;dashed=1;endArrow=none;endFill=0;" parent="1" source="Gceo2TrFd9_NEJS-I-wb-11" edge="1">
          <mxGeometry relative="1" as="geometry">
            <mxPoint x="835" y="640" as="targetPoint" />
          </mxGeometry>
        </mxCell>
        <mxCell id="H8I2yWT_91cUdHV6mu30-5" value="CarRequestDAO" style="html=1;" parent="1" vertex="1">
          <mxGeometry x="780" y="85" width="110" height="50" as="geometry" />
        </mxCell>
        <mxCell id="H8I2yWT_91cUdHV6mu30-11" value="" style="html=1;points=[];perimeter=orthogonalPerimeter;" parent="1" vertex="1">
          <mxGeometry x="125" y="160" width="10" height="260" as="geometry" />
        </mxCell>
        <mxCell id="H8I2yWT_91cUdHV6mu30-12" style="edgeStyle=orthogonalEdgeStyle;rounded=0;orthogonalLoop=1;jettySize=auto;html=1;dashed=1;endArrow=none;endFill=0;" parent="1" source="H8I2yWT_91cUdHV6mu30-1" target="H8I2yWT_91cUdHV6mu30-11" edge="1">
          <mxGeometry relative="1" as="geometry">
            <mxPoint x="130" y="560.7999877929688" as="targetPoint" />
            <mxPoint x="130" y="140" as="sourcePoint" />
          </mxGeometry>
        </mxCell>
        <mxCell id="H8I2yWT_91cUdHV6mu30-17" style="edgeStyle=orthogonalEdgeStyle;rounded=0;orthogonalLoop=1;jettySize=auto;html=1;endArrow=block;endFill=1;" parent="1" source="H8I2yWT_91cUdHV6mu30-13" target="H8I2yWT_91cUdHV6mu30-15" edge="1">
          <mxGeometry relative="1" as="geometry">
            <Array as="points">
              <mxPoint x="340" y="220" />
              <mxPoint x="340" y="220" />
            </Array>
          </mxGeometry>
        </mxCell>
        <mxCell id="H8I2yWT_91cUdHV6mu30-18" value="Запрос получения &lt;br&gt;списка заявок()" style="edgeLabel;html=1;align=center;verticalAlign=middle;resizable=0;points=[];" parent="H8I2yWT_91cUdHV6mu30-17" vertex="1" connectable="0">
          <mxGeometry x="0.1075" relative="1" as="geometry">
            <mxPoint x="-9" as="offset" />
          </mxGeometry>
        </mxCell>
        <mxCell id="Gceo2TrFd9_NEJS-I-wb-8" style="edgeStyle=orthogonalEdgeStyle;rounded=0;orthogonalLoop=1;jettySize=auto;html=1;dashed=1;endArrow=open;endFill=0;entryX=1.1;entryY=0.927;entryDx=0;entryDy=0;entryPerimeter=0;" edge="1" parent="1" target="H8I2yWT_91cUdHV6mu30-11">
          <mxGeometry relative="1" as="geometry">
            <mxPoint x="301" y="400" as="sourcePoint" />
            <mxPoint x="123.14285714285714" y="400" as="targetPoint" />
            <Array as="points">
              <mxPoint x="219" y="401" />
            </Array>
          </mxGeometry>
        </mxCell>
        <mxCell id="Gceo2TrFd9_NEJS-I-wb-9" value="Вывод списка заявок&amp;nbsp;&lt;div&gt;пользователя()&amp;nbsp;&lt;/div&gt;" style="edgeLabel;html=1;align=center;verticalAlign=middle;resizable=0;points=[];" vertex="1" connectable="0" parent="Gceo2TrFd9_NEJS-I-wb-8">
          <mxGeometry x="0.197" relative="1" as="geometry">
            <mxPoint x="18" as="offset" />
          </mxGeometry>
        </mxCell>
        <mxCell id="H8I2yWT_91cUdHV6mu30-13" value="" style="html=1;points=[];perimeter=orthogonalPerimeter;" parent="1" vertex="1">
          <mxGeometry x="300" y="180" width="10" height="220" as="geometry" />
        </mxCell>
        <mxCell id="H8I2yWT_91cUdHV6mu30-21" style="edgeStyle=orthogonalEdgeStyle;rounded=0;orthogonalLoop=1;jettySize=auto;html=1;endArrow=block;endFill=1;" parent="1" source="H8I2yWT_91cUdHV6mu30-15" target="H8I2yWT_91cUdHV6mu30-19" edge="1">
          <mxGeometry relative="1" as="geometry">
            <Array as="points">
              <mxPoint x="620" y="240" />
              <mxPoint x="620" y="240" />
            </Array>
          </mxGeometry>
        </mxCell>
        <mxCell id="H8I2yWT_91cUdHV6mu30-22" value="Поиск заявок()" style="edgeLabel;html=1;align=center;verticalAlign=middle;resizable=0;points=[];" parent="H8I2yWT_91cUdHV6mu30-21" vertex="1" connectable="0">
          <mxGeometry x="-0.2871" y="2" relative="1" as="geometry">
            <mxPoint x="19" y="2" as="offset" />
          </mxGeometry>
        </mxCell>
        <mxCell id="H8I2yWT_91cUdHV6mu30-15" value="" style="html=1;points=[];perimeter=orthogonalPerimeter;" parent="1" vertex="1">
          <mxGeometry x="470" y="200" width="10" height="70" as="geometry" />
        </mxCell>
        <mxCell id="H8I2yWT_91cUdHV6mu30-16" style="edgeStyle=orthogonalEdgeStyle;rounded=0;orthogonalLoop=1;jettySize=auto;html=1;exitX=0.5;exitY=1;exitDx=0;exitDy=0;dashed=1;endArrow=none;endFill=0;" parent="1" source="H8I2yWT_91cUdHV6mu30-3" target="H8I2yWT_91cUdHV6mu30-15" edge="1">
          <mxGeometry relative="1" as="geometry">
            <mxPoint x="475" y="580" as="targetPoint" />
            <mxPoint x="475" y="135" as="sourcePoint" />
          </mxGeometry>
        </mxCell>
        <mxCell id="H8I2yWT_91cUdHV6mu30-25" style="edgeStyle=orthogonalEdgeStyle;rounded=0;orthogonalLoop=1;jettySize=auto;html=1;endArrow=block;endFill=1;entryX=-0.24;entryY=0.238;entryDx=0;entryDy=0;entryPerimeter=0;" parent="1" source="H8I2yWT_91cUdHV6mu30-19" target="H8I2yWT_91cUdHV6mu30-23" edge="1">
          <mxGeometry relative="1" as="geometry">
            <mxPoint x="800" y="250" as="targetPoint" />
            <Array as="points">
              <mxPoint x="745" y="249" />
            </Array>
          </mxGeometry>
        </mxCell>
        <mxCell id="H8I2yWT_91cUdHV6mu30-26" value="Запрос заявок()" style="edgeLabel;html=1;align=center;verticalAlign=middle;resizable=0;points=[];" parent="H8I2yWT_91cUdHV6mu30-25" vertex="1" connectable="0">
          <mxGeometry x="-0.3944" y="-1" relative="1" as="geometry">
            <mxPoint x="29" as="offset" />
          </mxGeometry>
        </mxCell>
        <mxCell id="6NppYY_hd-WqiuafVUlB-8" style="edgeStyle=orthogonalEdgeStyle;rounded=0;orthogonalLoop=1;jettySize=auto;html=1;dashed=1;endArrow=open;endFill=0;" parent="1" source="H8I2yWT_91cUdHV6mu30-19" target="6NppYY_hd-WqiuafVUlB-6" edge="1">
          <mxGeometry relative="1" as="geometry">
            <Array as="points">
              <mxPoint x="530" y="360" />
              <mxPoint x="530" y="360" />
            </Array>
          </mxGeometry>
        </mxCell>
        <mxCell id="6NppYY_hd-WqiuafVUlB-9" value="Возврат данных заявок()" style="edgeLabel;html=1;align=center;verticalAlign=middle;resizable=0;points=[];" parent="6NppYY_hd-WqiuafVUlB-8" vertex="1" connectable="0">
          <mxGeometry x="-0.1647" y="-4" relative="1" as="geometry">
            <mxPoint x="-9" y="4" as="offset" />
          </mxGeometry>
        </mxCell>
        <mxCell id="H8I2yWT_91cUdHV6mu30-19" value="" style="html=1;points=[];perimeter=orthogonalPerimeter;" parent="1" vertex="1">
          <mxGeometry x="650" y="220" width="10" height="150" as="geometry" />
        </mxCell>
        <mxCell id="H8I2yWT_91cUdHV6mu30-20" style="edgeStyle=orthogonalEdgeStyle;rounded=0;orthogonalLoop=1;jettySize=auto;html=1;exitX=0.5;exitY=1;exitDx=0;exitDy=0;dashed=1;endArrow=none;endFill=0;" parent="1" source="H8I2yWT_91cUdHV6mu30-4" target="H8I2yWT_91cUdHV6mu30-19" edge="1">
          <mxGeometry relative="1" as="geometry">
            <mxPoint x="655" y="582.4000244140625" as="targetPoint" />
            <mxPoint x="655" y="135" as="sourcePoint" />
          </mxGeometry>
        </mxCell>
        <mxCell id="H8I2yWT_91cUdHV6mu30-29" value="Обработка запроса()" style="edgeStyle=orthogonalEdgeStyle;rounded=0;orthogonalLoop=1;jettySize=auto;html=1;entryX=0.92;entryY=0.6;entryDx=0;entryDy=0;entryPerimeter=0;endArrow=block;endFill=1;exitX=1.016;exitY=0.498;exitDx=0;exitDy=0;exitPerimeter=0;" parent="1" source="H8I2yWT_91cUdHV6mu30-23" target="H8I2yWT_91cUdHV6mu30-28" edge="1">
          <mxGeometry x="0.0559" y="30" relative="1" as="geometry">
            <Array as="points">
              <mxPoint x="870" y="260" />
              <mxPoint x="870" y="280" />
            </Array>
            <mxPoint as="offset" />
          </mxGeometry>
        </mxCell>
        <mxCell id="H8I2yWT_91cUdHV6mu30-23" value="" style="html=1;points=[];perimeter=orthogonalPerimeter;" parent="1" vertex="1">
          <mxGeometry x="830" y="220" width="10" height="120" as="geometry" />
        </mxCell>
        <mxCell id="H8I2yWT_91cUdHV6mu30-24" style="edgeStyle=orthogonalEdgeStyle;rounded=0;orthogonalLoop=1;jettySize=auto;html=1;exitX=0.5;exitY=1;exitDx=0;exitDy=0;dashed=1;endArrow=none;endFill=0;" parent="1" source="H8I2yWT_91cUdHV6mu30-5" target="H8I2yWT_91cUdHV6mu30-23" edge="1">
          <mxGeometry relative="1" as="geometry">
            <mxPoint x="835" y="580" as="targetPoint" />
            <mxPoint x="835" y="135" as="sourcePoint" />
          </mxGeometry>
        </mxCell>
        <mxCell id="H8I2yWT_91cUdHV6mu30-28" value="" style="html=1;points=[];perimeter=orthogonalPerimeter;" parent="1" vertex="1">
          <mxGeometry x="835" y="268" width="10" height="20" as="geometry" />
        </mxCell>
        <mxCell id="6NppYY_hd-WqiuafVUlB-2" value="" style="endArrow=open;html=1;rounded=0;entryX=1;entryY=0.727;entryDx=0;entryDy=0;entryPerimeter=0;exitX=-0.16;exitY=0.675;exitDx=0;exitDy=0;exitPerimeter=0;dashed=1;endFill=0;" parent="1" edge="1">
          <mxGeometry width="50" height="50" relative="1" as="geometry">
            <mxPoint x="828.4000000000001" y="321.03" as="sourcePoint" />
            <mxPoint x="660" y="320" as="targetPoint" />
          </mxGeometry>
        </mxCell>
        <mxCell id="6NppYY_hd-WqiuafVUlB-3" value="Данные заявок()" style="edgeLabel;html=1;align=center;verticalAlign=middle;resizable=0;points=[];" parent="6NppYY_hd-WqiuafVUlB-2" vertex="1" connectable="0">
          <mxGeometry x="-0.3065" y="1" relative="1" as="geometry">
            <mxPoint x="-20" as="offset" />
          </mxGeometry>
        </mxCell>
        <mxCell id="6NppYY_hd-WqiuafVUlB-7" value="" style="edgeStyle=orthogonalEdgeStyle;rounded=0;orthogonalLoop=1;jettySize=auto;html=1;exitX=0.5;exitY=1;exitDx=0;exitDy=0;dashed=1;endArrow=none;endFill=0;" parent="1" source="H8I2yWT_91cUdHV6mu30-15" target="6NppYY_hd-WqiuafVUlB-6" edge="1">
          <mxGeometry relative="1" as="geometry">
            <mxPoint x="475" y="580" as="targetPoint" />
            <mxPoint x="475" y="270" as="sourcePoint" />
            <Array as="points">
              <mxPoint x="475" y="360" />
              <mxPoint x="475" y="360" />
            </Array>
          </mxGeometry>
        </mxCell>
        <mxCell id="6NppYY_hd-WqiuafVUlB-6" value="" style="html=1;points=[[0,0,0,0,5],[0,1,0,0,-5],[1,0,0,0,5],[1,1,0,0,-5]];perimeter=orthogonalPerimeter;outlineConnect=0;targetShapes=umlLifeline;portConstraint=eastwest;newEdgeStyle={&quot;curved&quot;:0,&quot;rounded&quot;:0};" parent="1" vertex="1">
          <mxGeometry x="470" y="340" width="10" height="60" as="geometry" />
        </mxCell>
        <mxCell id="6NppYY_hd-WqiuafVUlB-11" style="edgeStyle=orthogonalEdgeStyle;rounded=0;orthogonalLoop=1;jettySize=auto;html=1;endArrow=block;endFill=1;entryX=-0.055;entryY=0.072;entryDx=0;entryDy=0;entryPerimeter=0;" parent="1" target="H8I2yWT_91cUdHV6mu30-13" edge="1">
          <mxGeometry relative="1" as="geometry">
            <Array as="points">
              <mxPoint x="165" y="200" />
            </Array>
            <mxPoint x="135" y="200" as="sourcePoint" />
            <mxPoint x="295" y="200" as="targetPoint" />
          </mxGeometry>
        </mxCell>
        <mxCell id="6NppYY_hd-WqiuafVUlB-12" value="Запрос своих заявок()" style="edgeLabel;html=1;align=center;verticalAlign=middle;resizable=0;points=[];" parent="6NppYY_hd-WqiuafVUlB-11" vertex="1" connectable="0">
          <mxGeometry x="0.1075" relative="1" as="geometry">
            <mxPoint x="-9" as="offset" />
          </mxGeometry>
        </mxCell>
        <mxCell id="6NppYY_hd-WqiuafVUlB-13" style="edgeStyle=orthogonalEdgeStyle;rounded=0;orthogonalLoop=1;jettySize=auto;html=1;curved=0;endArrow=open;endFill=0;dashed=1;" parent="1" source="6NppYY_hd-WqiuafVUlB-6" edge="1">
          <mxGeometry relative="1" as="geometry">
            <mxPoint x="310" y="380" as="targetPoint" />
            <Array as="points">
              <mxPoint x="390" y="380" />
              <mxPoint x="390" y="380" />
            </Array>
          </mxGeometry>
        </mxCell>
        <mxCell id="6NppYY_hd-WqiuafVUlB-14" value="Список заявок()" style="edgeLabel;html=1;align=center;verticalAlign=middle;resizable=0;points=[];" parent="6NppYY_hd-WqiuafVUlB-13" vertex="1" connectable="0">
          <mxGeometry x="0.0944" relative="1" as="geometry">
            <mxPoint as="offset" />
          </mxGeometry>
        </mxCell>
        <mxCell id="Gceo2TrFd9_NEJS-I-wb-2" value="" style="endArrow=none;dashed=1;html=1;strokeWidth=2;rounded=0;exitX=0.002;exitY=0.458;exitDx=0;exitDy=0;exitPerimeter=0;entryX=1;entryY=0.455;entryDx=0;entryDy=0;entryPerimeter=0;opacity=60;" edge="1" parent="1" source="Gceo2TrFd9_NEJS-I-wb-1" target="Gceo2TrFd9_NEJS-I-wb-1">
          <mxGeometry width="50" height="50" relative="1" as="geometry">
            <mxPoint x="200" y="520" as="sourcePoint" />
            <mxPoint x="250" y="470" as="targetPoint" />
          </mxGeometry>
        </mxCell>
        <mxCell id="Gceo2TrFd9_NEJS-I-wb-3" value="[Список не пуст]" style="text;html=1;align=center;verticalAlign=middle;whiteSpace=wrap;rounded=0;" vertex="1" parent="1">
          <mxGeometry x="10" y="330" width="100" height="30" as="geometry" />
        </mxCell>
        <mxCell id="Gceo2TrFd9_NEJS-I-wb-4" value="[Список пуст]" style="text;html=1;align=center;verticalAlign=middle;whiteSpace=wrap;rounded=0;" vertex="1" parent="1">
          <mxGeometry y="439.5" width="100" height="30" as="geometry" />
        </mxCell>
        <mxCell id="Gceo2TrFd9_NEJS-I-wb-10" value="" style="edgeStyle=orthogonalEdgeStyle;rounded=0;orthogonalLoop=1;jettySize=auto;html=1;exitX=0.5;exitY=1;exitDx=0;exitDy=0;dashed=1;endArrow=none;endFill=0;" edge="1" parent="1" source="H8I2yWT_91cUdHV6mu30-23" target="Gceo2TrFd9_NEJS-I-wb-11">
          <mxGeometry relative="1" as="geometry">
            <mxPoint x="835" y="580" as="targetPoint" />
            <mxPoint x="835" y="340" as="sourcePoint" />
            <Array as="points">
              <mxPoint x="835" y="440" />
              <mxPoint x="835" y="440" />
            </Array>
          </mxGeometry>
        </mxCell>
        <mxCell id="Gceo2TrFd9_NEJS-I-wb-14" style="edgeStyle=orthogonalEdgeStyle;rounded=0;orthogonalLoop=1;jettySize=auto;html=1;curved=0;dashed=1;endArrow=open;endFill=0;" edge="1" parent="1" source="Gceo2TrFd9_NEJS-I-wb-11" target="Gceo2TrFd9_NEJS-I-wb-13">
          <mxGeometry relative="1" as="geometry">
            <Array as="points">
              <mxPoint x="710" y="450" />
              <mxPoint x="710" y="450" />
            </Array>
          </mxGeometry>
        </mxCell>
        <mxCell id="Gceo2TrFd9_NEJS-I-wb-15" value="Возвращение пустого&lt;div&gt;списка()&lt;/div&gt;" style="edgeLabel;html=1;align=center;verticalAlign=middle;resizable=0;points=[];" vertex="1" connectable="0" parent="Gceo2TrFd9_NEJS-I-wb-14">
          <mxGeometry x="0.1384" y="4" relative="1" as="geometry">
            <mxPoint x="16" as="offset" />
          </mxGeometry>
        </mxCell>
        <mxCell id="Gceo2TrFd9_NEJS-I-wb-11" value="" style="html=1;points=[[0,0,0,0,5],[0,1,0,0,-5],[1,0,0,0,5],[1,1,0,0,-5]];perimeter=orthogonalPerimeter;outlineConnect=0;targetShapes=umlLifeline;portConstraint=eastwest;newEdgeStyle={&quot;curved&quot;:0,&quot;rounded&quot;:0};" vertex="1" parent="1">
          <mxGeometry x="830" y="440" width="10" height="20" as="geometry" />
        </mxCell>
        <mxCell id="Gceo2TrFd9_NEJS-I-wb-12" value="" style="edgeStyle=orthogonalEdgeStyle;rounded=0;orthogonalLoop=1;jettySize=auto;html=1;exitX=0.5;exitY=1;exitDx=0;exitDy=0;dashed=1;endArrow=none;endFill=0;" edge="1" parent="1" source="H8I2yWT_91cUdHV6mu30-19" target="Gceo2TrFd9_NEJS-I-wb-13">
          <mxGeometry relative="1" as="geometry">
            <mxPoint x="655" y="582.4000244140625" as="targetPoint" />
            <mxPoint x="655" y="370" as="sourcePoint" />
            <Array as="points">
              <mxPoint x="655" y="450" />
              <mxPoint x="655" y="450" />
            </Array>
          </mxGeometry>
        </mxCell>
        <mxCell id="Gceo2TrFd9_NEJS-I-wb-19" style="edgeStyle=orthogonalEdgeStyle;rounded=0;orthogonalLoop=1;jettySize=auto;html=1;curved=0;dashed=1;endArrow=open;endFill=0;" edge="1" parent="1" source="Gceo2TrFd9_NEJS-I-wb-13" target="Gceo2TrFd9_NEJS-I-wb-17">
          <mxGeometry relative="1" as="geometry">
            <Array as="points">
              <mxPoint x="600" y="490" />
              <mxPoint x="600" y="490" />
            </Array>
          </mxGeometry>
        </mxCell>
        <mxCell id="Gceo2TrFd9_NEJS-I-wb-20" value="Отправление пустого&lt;div&gt;списка()&lt;/div&gt;" style="edgeLabel;html=1;align=center;verticalAlign=middle;resizable=0;points=[];" vertex="1" connectable="0" parent="Gceo2TrFd9_NEJS-I-wb-19">
          <mxGeometry x="0.0692" relative="1" as="geometry">
            <mxPoint as="offset" />
          </mxGeometry>
        </mxCell>
        <mxCell id="Gceo2TrFd9_NEJS-I-wb-13" value="" style="html=1;points=[[0,0,0,0,5],[0,1,0,0,-5],[1,0,0,0,5],[1,1,0,0,-5]];perimeter=orthogonalPerimeter;outlineConnect=0;targetShapes=umlLifeline;portConstraint=eastwest;newEdgeStyle={&quot;curved&quot;:0,&quot;rounded&quot;:0};" vertex="1" parent="1">
          <mxGeometry x="650" y="440" width="10" height="60" as="geometry" />
        </mxCell>
        <mxCell id="Gceo2TrFd9_NEJS-I-wb-16" value="" style="edgeStyle=orthogonalEdgeStyle;rounded=0;orthogonalLoop=1;jettySize=auto;html=1;exitX=0.5;exitY=1;exitDx=0;exitDy=0;dashed=1;endArrow=none;endFill=0;" edge="1" parent="1" source="6NppYY_hd-WqiuafVUlB-6" target="Gceo2TrFd9_NEJS-I-wb-17">
          <mxGeometry relative="1" as="geometry">
            <mxPoint x="475" y="620" as="targetPoint" />
            <mxPoint x="475" y="400" as="sourcePoint" />
            <Array as="points">
              <mxPoint x="475" y="460" />
              <mxPoint x="475" y="460" />
            </Array>
          </mxGeometry>
        </mxCell>
        <mxCell id="Gceo2TrFd9_NEJS-I-wb-22" style="edgeStyle=orthogonalEdgeStyle;rounded=0;orthogonalLoop=1;jettySize=auto;html=1;curved=0;dashed=1;endArrow=open;endFill=0;" edge="1" parent="1" source="Gceo2TrFd9_NEJS-I-wb-17" target="Gceo2TrFd9_NEJS-I-wb-21">
          <mxGeometry relative="1" as="geometry">
            <Array as="points">
              <mxPoint x="420" y="515" />
              <mxPoint x="420" y="515" />
            </Array>
          </mxGeometry>
        </mxCell>
        <mxCell id="Gceo2TrFd9_NEJS-I-wb-23" value="Отправление сообщения&lt;div&gt;о пустоте списка()&lt;/div&gt;" style="edgeLabel;html=1;align=center;verticalAlign=middle;resizable=0;points=[];" vertex="1" connectable="0" parent="Gceo2TrFd9_NEJS-I-wb-22">
          <mxGeometry x="0.0919" y="1" relative="1" as="geometry">
            <mxPoint x="17" y="-1" as="offset" />
          </mxGeometry>
        </mxCell>
        <mxCell id="Gceo2TrFd9_NEJS-I-wb-17" value="" style="html=1;points=[[0,0,0,0,5],[0,1,0,0,-5],[1,0,0,0,5],[1,1,0,0,-5]];perimeter=orthogonalPerimeter;outlineConnect=0;targetShapes=umlLifeline;portConstraint=eastwest;newEdgeStyle={&quot;curved&quot;:0,&quot;rounded&quot;:0};" vertex="1" parent="1">
          <mxGeometry x="470" y="460" width="10" height="60" as="geometry" />
        </mxCell>
        <mxCell id="Gceo2TrFd9_NEJS-I-wb-25" style="edgeStyle=orthogonalEdgeStyle;rounded=0;orthogonalLoop=1;jettySize=auto;html=1;curved=0;dashed=1;endArrow=open;endFill=0;" edge="1" parent="1" source="Gceo2TrFd9_NEJS-I-wb-21" target="Gceo2TrFd9_NEJS-I-wb-24">
          <mxGeometry relative="1" as="geometry">
            <Array as="points">
              <mxPoint x="260" y="530" />
              <mxPoint x="260" y="530" />
            </Array>
          </mxGeometry>
        </mxCell>
        <mxCell id="Gceo2TrFd9_NEJS-I-wb-26" value="Оповещение пользователя&amp;nbsp;&lt;div&gt;об отсутствии заявок()&lt;/div&gt;" style="edgeLabel;html=1;align=center;verticalAlign=middle;resizable=0;points=[];" vertex="1" connectable="0" parent="Gceo2TrFd9_NEJS-I-wb-25">
          <mxGeometry x="-0.1622" y="2" relative="1" as="geometry">
            <mxPoint as="offset" />
          </mxGeometry>
        </mxCell>
        <mxCell id="Gceo2TrFd9_NEJS-I-wb-21" value="" style="html=1;points=[[0,0,0,0,5],[0,1,0,0,-5],[1,0,0,0,5],[1,1,0,0,-5]];perimeter=orthogonalPerimeter;outlineConnect=0;targetShapes=umlLifeline;portConstraint=eastwest;newEdgeStyle={&quot;curved&quot;:0,&quot;rounded&quot;:0};" vertex="1" parent="1">
          <mxGeometry x="300" y="490" width="10" height="50" as="geometry" />
        </mxCell>
        <mxCell id="Gceo2TrFd9_NEJS-I-wb-24" value="" style="html=1;points=[[0,0,0,0,5],[0,1,0,0,-5],[1,0,0,0,5],[1,1,0,0,-5]];perimeter=orthogonalPerimeter;outlineConnect=0;targetShapes=umlLifeline;portConstraint=eastwest;newEdgeStyle={&quot;curved&quot;:0,&quot;rounded&quot;:0};" vertex="1" parent="1">
          <mxGeometry x="125" y="490" width="10" height="80" as="geometry" />
        </mxCell>
      </root>
    </mxGraphModel>
  </diagram>
</mxfile>
